solid OpenSCAD_Model
  facet normal 0 -1 0
    outer loop
      vertex -40.5 -61.5 1.5
      vertex -40.5 -61.5 0
      vertex -39 -61.5 1.5
    endloop
  endfacet
  facet normal 0 -1 0
    outer loop
      vertex -40.5 -61.5 0
      vertex 39 -61.5 1.5
      vertex -39 -61.5 1.5
    endloop
  endfacet
  facet normal 0 0 1
    outer loop
      vertex -39 -60 1.5
      vertex 39 -60 1.5
      vertex -39 60 1.5
    endloop
  endfacet
  facet normal 0 0 -1
    outer loop
      vertex -40.5 61.5 0
      vertex 40.5 61.5 0
      vertex -40.5 -61.5 0
    endloop
  endfacet
  facet normal 0 1 0
    outer loop
      vertex -40.5 61.5 0
      vertex -40.5 61.5 1.5
      vertex 40.5 61.5 0
    endloop
  endfacet
  facet normal 0 1 0
    outer loop
      vertex -39 61.5 1.5
      vertex 40.5 61.5 0
      vertex -40.5 61.5 1.5
    endloop
  endfacet
  facet normal 0 -1 0
    outer loop
      vertex 40.5 -61.5 0
      vertex 40.5 -61.5 1.5
      vertex -40.5 -61.5 0
    endloop
  endfacet
  facet normal 0 -1 0
    outer loop
      vertex -40.5 -61.5 0
      vertex 40.5 -61.5 1.5
      vertex 39 -61.5 1.5
    endloop
  endfacet
  facet normal 0 0 -1
    outer loop
      vertex 40.5 -61.5 0
      vertex -40.5 -61.5 0
      vertex 40.5 61.5 0
    endloop
  endfacet
  facet normal 0 0 1
    outer loop
      vertex 39 60 1.5
      vertex -39 60 1.5
      vertex 39 -60 1.5
    endloop
  endfacet
  facet normal 0 1 0
    outer loop
      vertex 39 61.5 1.5
      vertex 40.5 61.5 0
      vertex -39 61.5 1.5
    endloop
  endfacet
  facet normal 0 1 0
    outer loop
      vertex 40.5 61.5 0
      vertex 39 61.5 1.5
      vertex 40.5 61.5 1.5
    endloop
  endfacet
  facet normal 0 -1 0
    outer loop
      vertex -39 60 30
      vertex -39 60 1.5
      vertex 39 60 1.5
    endloop
  endfacet
  facet normal 0 1 0
    outer loop
      vertex -39 61.5 30
      vertex 39 61.5 30
      vertex -39 61.5 1.5
    endloop
  endfacet
  facet normal 0 0 1
    outer loop
      vertex -39 60 30
      vertex 39 61.5 30
      vertex -39 61.5 30
    endloop
  endfacet
  facet normal 0 1 0
    outer loop
      vertex 39 61.5 30
      vertex 39 61.5 1.5
      vertex -39 61.5 1.5
    endloop
  endfacet
  facet normal 1 0 0
    outer loop
      vertex 40.5 60 0.36585365853658536
      vertex 40.5 61.5 0
      vertex 40.5 60 30
    endloop
  endfacet
  facet normal 1 0 0
    outer loop
      vertex 40.5 60 30
      vertex 40.5 61.5 0
      vertex 40.5 61.5 1.5
    endloop
  endfacet
  facet normal 0 -1 0
    outer loop
      vertex -39 60 30
      vertex 39 60 1.5
      vertex 39 60 30
    endloop
  endfacet
  facet normal 0 0 1
    outer loop
      vertex -39 60 30
      vertex 39 60 30
      vertex 40.5 61.5 30
    endloop
  endfacet
  facet normal 0 0 1
    outer loop
      vertex -39 60 30
      vertex 40.5 61.5 30
      vertex 39 61.5 30
    endloop
  endfacet
  facet normal 1 0 0
    outer loop
      vertex 40.5 60 30
      vertex 40.5 61.5 1.5
      vertex 40.5 61.5 30
    endloop
  endfacet
  facet normal 0 0 1
    outer loop
      vertex 39 60 30
      vertex 40.5 60 30
      vertex 40.5 61.5 30
    endloop
  endfacet
  facet normal 0 -1 0
    outer loop
      vertex -39 -61.5 30
      vertex -39 -61.5 1.5
      vertex 39 -61.5 1.5
    endloop
  endfacet
  facet normal 0 0 1
    outer loop
      vertex -39 -61.5 30
      vertex -39 -60 30
      vertex -39.01829268292683 -60 30
    endloop
  endfacet
  facet normal 0 1 0
    outer loop
      vertex -39 -60 30
      vertex 39 -60 30
      vertex -39 -60 1.5
    endloop
  endfacet
  facet normal 0 0 1
    outer loop
      vertex -39 -61.5 30
      vertex 39 -60 30
      vertex -39 -60 30
    endloop
  endfacet
  facet normal 0 1 0
    outer loop
      vertex 39 -60 30
      vertex 39 -60 1.5
      vertex -39 -60 1.5
    endloop
  endfacet
  facet normal 0 -1 0
    outer loop
      vertex -39 -61.5 30
      vertex 39 -61.5 1.5
      vertex 39 -61.5 30
    endloop
  endfacet
  facet normal 0 0 1
    outer loop
      vertex -39 -61.5 30
      vertex 39 -61.5 30
      vertex 39 -60 30
    endloop
  endfacet
  facet normal 0 0 1
    outer loop
      vertex 39 -61.5 30
      vertex 40.5 -61.5 30
      vertex 39 -60 30
    endloop
  endfacet
  facet normal 0 0 1
    outer loop
      vertex 39 -60 30
      vertex 40.5 -61.5 30
      vertex 40.5 -60 30
    endloop
  endfacet
  facet normal 1 0 0
    outer loop
      vertex 40.5 -61.5 30
      vertex 40.5 -60 29.634146341463413
      vertex 40.5 -60 30
    endloop
  endfacet
  facet normal 1 0 0
    outer loop
      vertex 40.5 -61.5 0
      vertex 40.5 -60 29.634146341463413
      vertex 40.5 -61.5 1.5
    endloop
  endfacet
  facet normal 0 -1 0
    outer loop
      vertex 39 -61.5 30
      vertex 39 -61.5 1.5
      vertex 40.5 -61.5 1.5
    endloop
  endfacet
  facet normal 1 0 0
    outer loop
      vertex 40.5 -61.5 0
      vertex 40.5 60 0.36585365853658536
      vertex 40.5 -60 29.634146341463413
    endloop
  endfacet
  facet normal 1 0 0
    outer loop
      vertex 40.5 -61.5 30
      vertex 40.5 -61.5 1.5
      vertex 40.5 -60 29.634146341463413
    endloop
  endfacet
  facet normal 0 -1 0
    outer loop
      vertex 39 -61.5 30
      vertex 40.5 -61.5 1.5
      vertex 40.5 -61.5 30
    endloop
  endfacet
  facet normal -1 0 0
    outer loop
      vertex 39 -60 30
      vertex 39 60 30
      vertex 39 -60 1.5
    endloop
  endfacet
  facet normal 0 0 1
    outer loop
      vertex 39 -60 30
      vertex 40.5 -60 30
      vertex 40.5 60 30
    endloop
  endfacet
  facet normal 1 0 0
    outer loop
      vertex 40.5 -60 29.634146341463413
      vertex 40.5 60 30
      vertex 40.5 -60 30
    endloop
  endfacet
  facet normal 1 0 0
    outer loop
      vertex 40.5 -61.5 0
      vertex 40.5 61.5 0
      vertex 40.5 60 0.36585365853658536
    endloop
  endfacet
  facet normal -1 0 0
    outer loop
      vertex 39 60 30
      vertex 39 60 1.5
      vertex 39 -60 1.5
    endloop
  endfacet
  facet normal 0 1 0
    outer loop
      vertex 40.5 61.5 30
      vertex 40.5 61.5 1.5
      vertex 39 61.5 1.5
    endloop
  endfacet
  facet normal 1 0 0
    outer loop
      vertex 40.5 -60 29.634146341463413
      vertex 40.5 60 0.36585365853658536
      vertex 40.5 60 30
    endloop
  endfacet
  facet normal 0 0 1
    outer loop
      vertex 39 -60 30
      vertex 40.5 60 30
      vertex 39 60 30
    endloop
  endfacet
  facet normal 0 1 0
    outer loop
      vertex 39 61.5 30
      vertex 40.5 61.5 30
      vertex 39 61.5 1.5
    endloop
  endfacet
  facet normal 0 -1 0
    outer loop
      vertex -40.5 -61.5 30
      vertex -40.5 -61.5 1.5
      vertex -39 -61.5 1.5
    endloop
  endfacet
  facet normal -1 0 0
    outer loop
      vertex -40.5 61.5 30
      vertex -40.5 -61.5 0
      vertex -40.5 -61.5 1.5
    endloop
  endfacet
  facet normal 1 0 0
    outer loop
      vertex -39 -60 30
      vertex -39 -60 1.5
      vertex -39 60 1.5
    endloop
  endfacet
  facet normal 0 -1 0
    outer loop
      vertex -40.5 -61.5 30
      vertex -39 -61.5 1.5
      vertex -39 -61.5 30
    endloop
  endfacet
  facet normal 0 0 1
    outer loop
      vertex -40.5 -61.5 30
      vertex -39 -61.5 30
      vertex -39.01829268292683 -60 30
    endloop
  endfacet
  facet normal -1 0 0
    outer loop
      vertex -40.5 -61.5 1.5
      vertex -40.5 -61.5 30
      vertex -40.5 61.5 30
    endloop
  endfacet
  facet normal 0 0 1
    outer loop
      vertex -40.5 -61.5 30
      vertex -39.01829268292683 -60 30
      vertex -40.5 61.5 30
    endloop
  endfacet
  facet normal 0 0 1
    outer loop
      vertex -39 -60 30
      vertex -39 60 30
      vertex -39.01829268292683 -60 30
    endloop
  endfacet
  facet normal -1 0 0
    outer loop
      vertex -40.5 -61.5 0
      vertex -40.5 61.5 1.5
      vertex -40.5 61.5 0
    endloop
  endfacet
  facet normal -1 0 0
    outer loop
      vertex -40.5 -61.5 0
      vertex -40.5 61.5 30
      vertex -40.5 61.5 1.5
    endloop
  endfacet
  facet normal 0 1 0
    outer loop
      vertex -39 61.5 30
      vertex -39 61.5 1.5
      vertex -40.5 61.5 1.5
    endloop
  endfacet
  facet normal 1 0 0
    outer loop
      vertex -39 -60 30
      vertex -39 60 1.5
      vertex -39 60 30
    endloop
  endfacet
  facet normal 0 0 1
    outer loop
      vertex -39.01829268292683 -60 30
      vertex -39 60 30
      vertex -40.5 61.5 30
    endloop
  endfacet
  facet normal 0 1 0
    outer loop
      vertex -40.5 61.5 30
      vertex -39 61.5 30
      vertex -40.5 61.5 1.5
    endloop
  endfacet
  facet normal 0 0 1
    outer loop
      vertex -40.5 61.5 30
      vertex -39 60 30
      vertex -39 61.5 30
    endloop
  endfacet
endsolid OpenSCAD_Model
